SplineFontDB: 3.2
FontName: Block
FullName: Compacity Block
FamilyName: Compacity Block
Weight: Regular
Copyright: Copyright 2022 Aleksandar Radivojevic
UComments: "Last configured on Sun May  7 23:50:48 2023"
FontLog: "Compact font made to save space and for fun.. mostly fun"
Version: 0.2
DefaultBaseFilename: compacity-block
ItalicAngle: 0
UnderlinePosition: -102
UnderlineWidth: 51
Ascent: 819
Descent: 205
InvalidEm: 0
LayerCount: 2
Layer: 0 0 "Back" 1
Layer: 1 0 "Fore" 0
XUID: [1021 463 591828059 535]
FSType: 0
OS2Version: 0
OS2_WeightWidthSlopeOnly: 0
OS2_UseTypoMetrics: 1
CreationTime: 1641441649
ModificationTime: 1683496248
PfmFamily: 17
TTFWeight: 400
TTFWidth: 5
LineGap: 92
VLineGap: 0
OS2TypoAscent: 0
OS2TypoAOffset: 1
OS2TypoDescent: 0
OS2TypoDOffset: 1
OS2TypoLinegap: 92
OS2WinAscent: 0
OS2WinAOffset: 1
OS2WinDescent: 0
OS2WinDOffset: 1
HheadAscent: 0
HheadAOffset: 1
HheadDescent: 0
HheadDOffset: 1
OS2Vendor: 'PfEd'
Lookup: 1 0 0 "to-bit" { "to-bit-1"  } []
Lookup: 6 0 0 "contextual-lookup-to-raw-bit" { "contextual-lookup-to-raw-bit-1"  } ['calt' ('DFLT' <'dflt' > 'latn' <'dflt' > ) ]
MarkAttachClasses: 1
DEI: 91125
ChainSub2: class "contextual-lookup-to-raw-bit-1" 4 4 4 2
  Class: 79 glyph67 glyph68 glyph69 glyph70 glyph71 glyph72 glyph73 glyph74 glyph75 glyph76
  Class: 5 grave
  Class: 5 space
  BClass: 79 glyph67 glyph68 glyph69 glyph70 glyph71 glyph72 glyph73 glyph74 glyph75 glyph76
  BClass: 5 grave
  BClass: 5 space
  FClass: 79 glyph67 glyph68 glyph69 glyph70 glyph71 glyph72 glyph73 glyph74 glyph75 glyph76
  FClass: 5 grave
  FClass: 5 space
 1 1 0
  ClsList: 1
  BClsList: 2
  FClsList:
 1
  SeqLookup: 0 "to-bit"
 1 1 0
  ClsList: 3
  BClsList: 2
  FClsList:
 1
  SeqLookup: 0 "to-bit"
  ClassNames: "All_Others" "numbers" "prefix" "space"
  BClassNames: "All_Others" "numbers" "prefix" "space"
  FClassNames: "All_Others" "numbers" "prefix" "space"
EndFPST

StartChar: bblock.1
Encoding: 86 -1 76
Width: 0
VWidth: 0
UnlinkRmOvrlpSave: 1
Flags: HW
LayerCount: 2
Fore
SplineSet
0 691 m 1
 0 819 l 1
 128 819 l 1
 128 691 l 1
 0 691 l 1
EndSplineSet
Comment: "AUTO CONFIGURED GLYPH+AAoA-DO NOT EDIT"
Colour: 69f08d
EndChar

StartChar: bblock.2
Encoding: 87 -1 77
Width: 0
VWidth: 0
UnlinkRmOvrlpSave: 1
Flags: HW
LayerCount: 2
Fore
SplineSet
0 563 m 1
 0 691 l 1
 128 691 l 1
 128 563 l 1
 0 563 l 1
EndSplineSet
Comment: "AUTO CONFIGURED GLYPH+AAoA-DO NOT EDIT"
Colour: 69f08d
EndChar

StartChar: bblock.3
Encoding: 88 -1 78
Width: 0
VWidth: 0
UnlinkRmOvrlpSave: 1
Flags: HW
LayerCount: 2
Fore
SplineSet
0 435 m 1
 0 563 l 1
 128 563 l 1
 128 435 l 1
 0 435 l 1
EndSplineSet
Comment: "AUTO CONFIGURED GLYPH+AAoA-DO NOT EDIT"
Colour: 69f08d
EndChar

StartChar: bblock.4
Encoding: 89 -1 79
Width: 0
VWidth: 0
UnlinkRmOvrlpSave: 1
Flags: HW
LayerCount: 2
Fore
SplineSet
0 307 m 1
 0 435 l 1
 128 435 l 1
 128 307 l 1
 0 307 l 1
EndSplineSet
Comment: "AUTO CONFIGURED GLYPH+AAoA-DO NOT EDIT"
Colour: 69f08d
EndChar

StartChar: bblock.0
Encoding: 90 -1 80
Width: 0
VWidth: 0
UnlinkRmOvrlpSave: 1
Flags: HW
LayerCount: 2
Fore
SplineSet
0 270 m 1
 0 334 l 1
 128 334 l 1
 128 270 l 1
 0 270 l 1
EndSplineSet
Comment: "AUTO CONFIGURED GLYPH+AAoA-DO NOT EDIT"
Colour: 69f08d
EndChar

StartChar: bblock.5
Encoding: 91 -1 81
Width: 0
VWidth: 0
UnlinkRmOvrlpSave: 1
Flags: HW
LayerCount: 2
Fore
SplineSet
0 179 m 1
 0 307 l 1
 128 307 l 1
 128 179 l 1
 0 179 l 1
EndSplineSet
Comment: "AUTO CONFIGURED GLYPH+AAoA-DO NOT EDIT"
Colour: 69f08d
EndChar

StartChar: bblock.6
Encoding: 92 -1 82
Width: 0
VWidth: 0
UnlinkRmOvrlpSave: 1
Flags: HW
LayerCount: 2
Fore
SplineSet
0 51 m 1
 0 179 l 1
 128 179 l 1
 128 51 l 1
 0 51 l 1
EndSplineSet
Comment: "AUTO CONFIGURED GLYPH+AAoA-DO NOT EDIT"
Colour: 69f08d
EndChar

StartChar: bblock.7
Encoding: 93 -1 83
Width: 0
VWidth: 0
UnlinkRmOvrlpSave: 1
Flags: HW
LayerCount: 2
Fore
SplineSet
0 -77 m 1
 0 51 l 1
 128 51 l 1
 128 -77 l 1
 0 -77 l 1
EndSplineSet
Comment: "AUTO CONFIGURED GLYPH+AAoA-DO NOT EDIT"
Colour: 69f08d
EndChar

StartChar: bblock.8
Encoding: 94 -1 84
Width: 0
VWidth: 0
UnlinkRmOvrlpSave: 1
Flags: HW
LayerCount: 2
Fore
SplineSet
0 -205 m 1
 0 -77 l 1
 128 -77 l 1
 128 -205 l 1
 0 -205 l 1
EndSplineSet
Comment: "AUTO CONFIGURED GLYPH+AAoA-DO NOT EDIT"
Colour: 69f08d
EndChar

StartChar: bblock.
Encoding: 121 -1 111
Width: 0
VWidth: 0
UnlinkRmOvrlpSave: 1
Flags: HW
LayerCount: 2
Fore
SplineSet
0 243 m 1
 0 307 l 1
 130 307 l 1
 130 243 l 1
 0 243 l 1
EndSplineSet
Comment: "AUTOGENERATED DO NOT EDIT"
Colour: f22929
EndChar

StartChar: bblock.
Encoding: 122 -1 112
Width: 0
VWidth: 0
UnlinkRmOvrlpSave: 1
Flags: HW
LayerCount: 2
Fore
SplineSet
0 689 m 1
 0 819 l 1
 130 819 l 1
 130 689 l 1
 0 689 l 1
EndSplineSet
Comment: "AUTOGENERATED DO NOT EDIT"
Colour: f22929
EndChar

StartChar: bblock.
Encoding: 123 -1 113
Width: 0
VWidth: 0
UnlinkRmOvrlpSave: 1
Flags: HW
LayerCount: 2
Fore
SplineSet
0 561 m 1
 0 691 l 1
 130 691 l 1
 130 561 l 1
 0 561 l 1
EndSplineSet
Comment: "AUTOGENERATED DO NOT EDIT"
Colour: f22929
EndChar

StartChar: bblock.
Encoding: 124 -1 114
Width: 0
VWidth: 0
UnlinkRmOvrlpSave: 1
Flags: HW
LayerCount: 2
Fore
SplineSet
0 433 m 1
 0 563 l 1
 130 563 l 1
 130 433 l 1
 0 433 l 1
EndSplineSet
Comment: "AUTOGENERATED DO NOT EDIT"
Colour: f22929
EndChar

StartChar: bblock.
Encoding: 125 -1 115
Width: 0
VWidth: 0
UnlinkRmOvrlpSave: 1
Flags: HW
LayerCount: 2
Fore
SplineSet
0 305 m 1
 0 435 l 1
 130 435 l 1
 130 305 l 1
 0 305 l 1
EndSplineSet
Comment: "AUTOGENERATED DO NOT EDIT"
Colour: f22929
EndChar

StartChar: bblock.
Encoding: 126 -1 116
Width: 0
VWidth: 0
UnlinkRmOvrlpSave: 1
Flags: HW
LayerCount: 2
Fore
SplineSet
0 177 m 1
 0 307 l 1
 130 307 l 1
 130 177 l 1
 0 177 l 1
EndSplineSet
Comment: "AUTOGENERATED DO NOT EDIT"
Colour: f22929
EndChar

StartChar: bblock.
Encoding: 127 -1 117
Width: 0
VWidth: 0
UnlinkRmOvrlpSave: 1
Flags: HW
LayerCount: 2
Fore
SplineSet
0 49 m 1
 0 179 l 1
 130 179 l 1
 130 49 l 1
 0 49 l 1
EndSplineSet
Comment: "AUTOGENERATED DO NOT EDIT"
Colour: f22929
EndChar

StartChar: bblock.
Encoding: 128 -1 118
Width: 0
VWidth: 0
UnlinkRmOvrlpSave: 1
Flags: HW
LayerCount: 2
Fore
SplineSet
0 -79 m 1
 0 51 l 1
 130 51 l 1
 130 -79 l 1
 0 -79 l 1
EndSplineSet
Comment: "AUTOGENERATED DO NOT EDIT"
Colour: f22929
EndChar

StartChar: bblock.
Encoding: 129 -1 119
Width: 0
VWidth: 0
UnlinkRmOvrlpSave: 1
Flags: HW
LayerCount: 2
Fore
SplineSet
0 -207 m 1
 0 -77 l 1
 130 -77 l 1
 130 -207 l 1
 0 -207 l 1
EndSplineSet
Comment: "AUTOGENERATED DO NOT EDIT"
Colour: f22929
EndChar

StartChar: bblock.
Encoding: 130 -1 120
Width: 0
VWidth: 0
UnlinkRmOvrlpSave: 1
Flags: HW
LayerCount: 2
Fore
SplineSet
0 243 m 1
 0 307 l 1
 130 307 l 1
 130 243 l 1
 0 243 l 1
EndSplineSet
Comment: "AUTOGENERATED DO NOT EDIT"
Colour: f22929
EndChar

StartChar: bblock.
Encoding: 131 -1 121
Width: 0
VWidth: 0
UnlinkRmOvrlpSave: 1
Flags: HW
LayerCount: 2
Fore
SplineSet
0 689 m 1
 0 819 l 1
 130 819 l 1
 130 689 l 1
 0 689 l 1
EndSplineSet
Comment: "AUTOGENERATED DO NOT EDIT"
Colour: f22929
EndChar

StartChar: bblock.
Encoding: 132 -1 122
Width: 0
VWidth: 0
UnlinkRmOvrlpSave: 1
Flags: HW
LayerCount: 2
Fore
SplineSet
0 561 m 1
 0 691 l 1
 130 691 l 1
 130 561 l 1
 0 561 l 1
EndSplineSet
Comment: "AUTOGENERATED DO NOT EDIT"
Colour: f22929
EndChar

StartChar: bblock.
Encoding: 133 -1 123
Width: 0
VWidth: 0
UnlinkRmOvrlpSave: 1
Flags: HW
LayerCount: 2
Fore
SplineSet
0 433 m 1
 0 563 l 1
 130 563 l 1
 130 433 l 1
 0 433 l 1
EndSplineSet
Comment: "AUTOGENERATED DO NOT EDIT"
Colour: f22929
EndChar

StartChar: bblock.
Encoding: 134 -1 124
Width: 0
VWidth: 0
UnlinkRmOvrlpSave: 1
Flags: HW
LayerCount: 2
Fore
SplineSet
0 305 m 1
 0 435 l 1
 130 435 l 1
 130 305 l 1
 0 305 l 1
EndSplineSet
Comment: "AUTOGENERATED DO NOT EDIT"
Colour: f22929
EndChar

StartChar: bblock.
Encoding: 135 -1 125
Width: 0
VWidth: 0
UnlinkRmOvrlpSave: 1
Flags: HW
LayerCount: 2
Fore
SplineSet
0 177 m 1
 0 307 l 1
 130 307 l 1
 130 177 l 1
 0 177 l 1
EndSplineSet
Comment: "AUTOGENERATED DO NOT EDIT"
Colour: f22929
EndChar

StartChar: bblock.
Encoding: 136 -1 126
Width: 0
VWidth: 0
UnlinkRmOvrlpSave: 1
Flags: HW
LayerCount: 2
Fore
SplineSet
0 49 m 1
 0 179 l 1
 130 179 l 1
 130 49 l 1
 0 49 l 1
EndSplineSet
Comment: "AUTOGENERATED DO NOT EDIT"
Colour: f22929
EndChar

StartChar: bblock.
Encoding: 137 -1 127
Width: 0
VWidth: 0
UnlinkRmOvrlpSave: 1
Flags: HW
LayerCount: 2
Fore
SplineSet
0 -79 m 1
 0 51 l 1
 130 51 l 1
 130 -79 l 1
 0 -79 l 1
EndSplineSet
Comment: "AUTOGENERATED DO NOT EDIT"
Colour: f22929
EndChar

StartChar: bblock.
Encoding: 138 -1 128
Width: 0
VWidth: 0
UnlinkRmOvrlpSave: 1
Flags: HW
LayerCount: 2
Fore
SplineSet
0 -207 m 1
 0 -77 l 1
 130 -77 l 1
 130 -207 l 1
 0 -207 l 1
EndSplineSet
Comment: "AUTOGENERATED DO NOT EDIT"
Colour: f22929
EndChar

StartChar: bblock.
Encoding: 139 -1 129
Width: 0
VWidth: 0
UnlinkRmOvrlpSave: 1
Flags: HW
LayerCount: 2
Fore
SplineSet
0 178 m 1
 0 242 l 1
 130 242 l 1
 130 178 l 1
 0 178 l 1
EndSplineSet
Comment: "AUTOGENERATED DO NOT EDIT"
Colour: f22929
EndChar

StartChar: bblock.
Encoding: 140 -1 130
Width: 0
VWidth: 0
UnlinkRmOvrlpSave: 1
Flags: HW
LayerCount: 2
Fore
SplineSet
0 689 m 1
 0 819 l 1
 130 819 l 1
 130 689 l 1
 0 689 l 1
EndSplineSet
Comment: "AUTOGENERATED DO NOT EDIT"
Colour: f22929
EndChar

StartChar: bblock.
Encoding: 141 -1 131
Width: 0
VWidth: 0
UnlinkRmOvrlpSave: 1
Flags: HW
LayerCount: 2
Fore
SplineSet
0 561 m 1
 0 691 l 1
 130 691 l 1
 130 561 l 1
 0 561 l 1
EndSplineSet
Comment: "AUTOGENERATED DO NOT EDIT"
Colour: f22929
EndChar

StartChar: bblock.
Encoding: 142 -1 132
Width: 0
VWidth: 0
UnlinkRmOvrlpSave: 1
Flags: HW
LayerCount: 2
Fore
SplineSet
0 433 m 1
 0 563 l 1
 130 563 l 1
 130 433 l 1
 0 433 l 1
EndSplineSet
Comment: "AUTOGENERATED DO NOT EDIT"
Colour: f22929
EndChar

StartChar: bblock.
Encoding: 143 -1 133
Width: 0
VWidth: 0
UnlinkRmOvrlpSave: 1
Flags: HW
LayerCount: 2
Fore
SplineSet
0 305 m 1
 0 435 l 1
 130 435 l 1
 130 305 l 1
 0 305 l 1
EndSplineSet
Comment: "AUTOGENERATED DO NOT EDIT"
Colour: f22929
EndChar

StartChar: bblock.
Encoding: 144 -1 134
Width: 0
VWidth: 0
UnlinkRmOvrlpSave: 1
Flags: HW
LayerCount: 2
Fore
SplineSet
0 177 m 1
 0 307 l 1
 130 307 l 1
 130 177 l 1
 0 177 l 1
EndSplineSet
Comment: "AUTOGENERATED DO NOT EDIT"
Colour: f22929
EndChar

StartChar: bblock.
Encoding: 145 -1 135
Width: 0
VWidth: 0
UnlinkRmOvrlpSave: 1
Flags: HW
LayerCount: 2
Fore
SplineSet
0 49 m 1
 0 179 l 1
 130 179 l 1
 130 49 l 1
 0 49 l 1
EndSplineSet
Comment: "AUTOGENERATED DO NOT EDIT"
Colour: f22929
EndChar

StartChar: bblock.
Encoding: 146 -1 136
Width: 0
VWidth: 0
UnlinkRmOvrlpSave: 1
Flags: HW
LayerCount: 2
Fore
SplineSet
0 -79 m 1
 0 51 l 1
 130 51 l 1
 130 -79 l 1
 0 -79 l 1
EndSplineSet
Comment: "AUTOGENERATED DO NOT EDIT"
Colour: f22929
EndChar

StartChar: bblock.
Encoding: 147 -1 137
Width: 0
VWidth: 0
UnlinkRmOvrlpSave: 1
Flags: HW
LayerCount: 2
Fore
SplineSet
0 -207 m 1
 0 -77 l 1
 130 -77 l 1
 130 -207 l 1
 0 -207 l 1
EndSplineSet
Comment: "AUTOGENERATED DO NOT EDIT"
Colour: f22929
EndChar

StartChar: bblock.
Encoding: 148 -1 138
Width: 0
VWidth: 0
UnlinkRmOvrlpSave: 1
Flags: HW
LayerCount: 2
Fore
SplineSet
0 178 m 1
 0 242 l 1
 130 242 l 1
 130 178 l 1
 0 178 l 1
EndSplineSet
Comment: "AUTOGENERATED DO NOT EDIT"
Colour: f22929
EndChar

StartChar: bblock.
Encoding: 149 -1 139
Width: 0
VWidth: 0
UnlinkRmOvrlpSave: 1
Flags: HW
LayerCount: 2
Fore
SplineSet
0 689 m 1
 0 819 l 1
 130 819 l 1
 130 689 l 1
 0 689 l 1
EndSplineSet
Comment: "AUTOGENERATED DO NOT EDIT"
Colour: f22929
EndChar

StartChar: bblock.
Encoding: 150 -1 140
Width: 0
VWidth: 0
UnlinkRmOvrlpSave: 1
Flags: HW
LayerCount: 2
Fore
SplineSet
0 561 m 1
 0 691 l 1
 130 691 l 1
 130 561 l 1
 0 561 l 1
EndSplineSet
Comment: "AUTOGENERATED DO NOT EDIT"
Colour: f22929
EndChar

StartChar: bblock.
Encoding: 151 -1 141
Width: 0
VWidth: 0
UnlinkRmOvrlpSave: 1
Flags: HW
LayerCount: 2
Fore
SplineSet
0 433 m 1
 0 563 l 1
 130 563 l 1
 130 433 l 1
 0 433 l 1
EndSplineSet
Comment: "AUTOGENERATED DO NOT EDIT"
Colour: f22929
EndChar

StartChar: bblock.
Encoding: 152 -1 142
Width: 0
VWidth: 0
UnlinkRmOvrlpSave: 1
Flags: HW
LayerCount: 2
Fore
SplineSet
0 305 m 1
 0 435 l 1
 130 435 l 1
 130 305 l 1
 0 305 l 1
EndSplineSet
Comment: "AUTOGENERATED DO NOT EDIT"
Colour: f22929
EndChar

StartChar: bblock.
Encoding: 153 -1 143
Width: 0
VWidth: 0
UnlinkRmOvrlpSave: 1
Flags: HW
LayerCount: 2
Fore
SplineSet
0 177 m 1
 0 307 l 1
 130 307 l 1
 130 177 l 1
 0 177 l 1
EndSplineSet
Comment: "AUTOGENERATED DO NOT EDIT"
Colour: f22929
EndChar

StartChar: bblock.
Encoding: 154 -1 144
Width: 0
VWidth: 0
UnlinkRmOvrlpSave: 1
Flags: HW
LayerCount: 2
Fore
SplineSet
0 49 m 1
 0 179 l 1
 130 179 l 1
 130 49 l 1
 0 49 l 1
EndSplineSet
Comment: "AUTOGENERATED DO NOT EDIT"
Colour: f22929
EndChar

StartChar: bblock.
Encoding: 155 -1 145
Width: 0
VWidth: 0
UnlinkRmOvrlpSave: 1
Flags: HW
LayerCount: 2
Fore
SplineSet
0 -79 m 1
 0 51 l 1
 130 51 l 1
 130 -79 l 1
 0 -79 l 1
EndSplineSet
Comment: "AUTOGENERATED DO NOT EDIT"
Colour: f22929
EndChar

StartChar: bblock.
Encoding: 156 -1 146
Width: 0
VWidth: 0
UnlinkRmOvrlpSave: 1
Flags: HW
LayerCount: 2
Fore
SplineSet
0 -207 m 1
 0 -77 l 1
 130 -77 l 1
 130 -207 l 1
 0 -207 l 1
EndSplineSet
Comment: "AUTOGENERATED DO NOT EDIT"
Colour: f22929
EndChar

StartChar: bblock.
Encoding: 157 -1 147
Width: 0
VWidth: 0
UnlinkRmOvrlpSave: 1
Flags: HW
LayerCount: 2
Fore
SplineSet
0 276 m 1
 0 340 l 1
 130 340 l 1
 130 276 l 1
 0 276 l 1
EndSplineSet
Comment: "AUTOGENERATED DO NOT EDIT"
Colour: f22929
EndChar

StartChar: bblock.
Encoding: 158 -1 148
Width: 0
VWidth: 0
UnlinkRmOvrlpSave: 1
Flags: HW
LayerCount: 2
Fore
SplineSet
0 689 m 1
 0 819 l 1
 130 819 l 1
 130 689 l 1
 0 689 l 1
EndSplineSet
Comment: "AUTOGENERATED DO NOT EDIT"
Colour: f22929
EndChar

StartChar: bblock.
Encoding: 159 -1 149
Width: 0
VWidth: 0
UnlinkRmOvrlpSave: 1
Flags: HW
LayerCount: 2
Fore
SplineSet
0 561 m 1
 0 691 l 1
 130 691 l 1
 130 561 l 1
 0 561 l 1
EndSplineSet
Comment: "AUTOGENERATED DO NOT EDIT"
Colour: f22929
EndChar

StartChar: bblock.
Encoding: 160 -1 150
Width: 0
VWidth: 0
UnlinkRmOvrlpSave: 1
Flags: HW
LayerCount: 2
Fore
SplineSet
0 433 m 1
 0 563 l 1
 130 563 l 1
 130 433 l 1
 0 433 l 1
EndSplineSet
Comment: "AUTOGENERATED DO NOT EDIT"
Colour: f22929
EndChar

StartChar: bblock.
Encoding: 161 -1 151
Width: 0
VWidth: 0
UnlinkRmOvrlpSave: 1
Flags: HW
LayerCount: 2
Fore
SplineSet
0 305 m 1
 0 435 l 1
 130 435 l 1
 130 305 l 1
 0 305 l 1
EndSplineSet
Comment: "AUTOGENERATED DO NOT EDIT"
Colour: f22929
EndChar

StartChar: bblock.
Encoding: 162 -1 152
Width: 0
VWidth: 0
UnlinkRmOvrlpSave: 1
Flags: HW
LayerCount: 2
Fore
SplineSet
0 177 m 1
 0 307 l 1
 130 307 l 1
 130 177 l 1
 0 177 l 1
EndSplineSet
Comment: "AUTOGENERATED DO NOT EDIT"
Colour: f22929
EndChar

StartChar: bblock.
Encoding: 163 -1 153
Width: 0
VWidth: 0
UnlinkRmOvrlpSave: 1
Flags: HW
LayerCount: 2
Fore
SplineSet
0 49 m 1
 0 179 l 1
 130 179 l 1
 130 49 l 1
 0 49 l 1
EndSplineSet
Comment: "AUTOGENERATED DO NOT EDIT"
Colour: f22929
EndChar

StartChar: bblock.
Encoding: 164 -1 154
Width: 0
VWidth: 0
UnlinkRmOvrlpSave: 1
Flags: HW
LayerCount: 2
Fore
SplineSet
0 -79 m 1
 0 51 l 1
 130 51 l 1
 130 -79 l 1
 0 -79 l 1
EndSplineSet
Comment: "AUTOGENERATED DO NOT EDIT"
Colour: f22929
EndChar

StartChar: bblock.
Encoding: 165 -1 155
Width: 0
VWidth: 0
UnlinkRmOvrlpSave: 1
Flags: HW
LayerCount: 2
Fore
SplineSet
0 -207 m 1
 0 -77 l 1
 130 -77 l 1
 130 -207 l 1
 0 -207 l 1
EndSplineSet
Comment: "AUTOGENERATED DO NOT EDIT"
Colour: f22929
EndChar

StartChar: bblock.
Encoding: 166 -1 156
Width: 0
VWidth: 0
UnlinkRmOvrlpSave: 1
Flags: HW
LayerCount: 2
Fore
SplineSet
0 275 m 1
 0 339 l 1
 130 339 l 1
 130 275 l 1
 0 275 l 1
EndSplineSet
Comment: "AUTOGENERATED DO NOT EDIT"
Colour: f22929
EndChar

StartChar: bblock.
Encoding: 167 -1 157
Width: 0
VWidth: 0
UnlinkRmOvrlpSave: 1
Flags: HW
LayerCount: 2
Fore
SplineSet
0 689 m 1
 0 819 l 1
 130 819 l 1
 130 689 l 1
 0 689 l 1
EndSplineSet
Comment: "AUTOGENERATED DO NOT EDIT"
Colour: f22929
EndChar

StartChar: bblock.
Encoding: 168 -1 158
Width: 0
VWidth: 0
UnlinkRmOvrlpSave: 1
Flags: HW
LayerCount: 2
Fore
SplineSet
0 561 m 1
 0 691 l 1
 130 691 l 1
 130 561 l 1
 0 561 l 1
EndSplineSet
Comment: "AUTOGENERATED DO NOT EDIT"
Colour: f22929
EndChar

StartChar: bblock.
Encoding: 169 -1 159
Width: 0
VWidth: 0
UnlinkRmOvrlpSave: 1
Flags: HW
LayerCount: 2
Fore
SplineSet
0 433 m 1
 0 563 l 1
 130 563 l 1
 130 433 l 1
 0 433 l 1
EndSplineSet
Comment: "AUTOGENERATED DO NOT EDIT"
Colour: f22929
EndChar

StartChar: bblock.
Encoding: 170 -1 160
Width: 0
VWidth: 0
UnlinkRmOvrlpSave: 1
Flags: HW
LayerCount: 2
Fore
SplineSet
0 305 m 1
 0 435 l 1
 130 435 l 1
 130 305 l 1
 0 305 l 1
EndSplineSet
Comment: "AUTOGENERATED DO NOT EDIT"
Colour: f22929
EndChar

StartChar: bblock.
Encoding: 171 -1 161
Width: 0
VWidth: 0
UnlinkRmOvrlpSave: 1
Flags: HW
LayerCount: 2
Fore
SplineSet
0 177 m 1
 0 307 l 1
 130 307 l 1
 130 177 l 1
 0 177 l 1
EndSplineSet
Comment: "AUTOGENERATED DO NOT EDIT"
Colour: f22929
EndChar

StartChar: bblock.
Encoding: 172 -1 162
Width: 0
VWidth: 0
UnlinkRmOvrlpSave: 1
Flags: HW
LayerCount: 2
Fore
SplineSet
0 49 m 1
 0 179 l 1
 130 179 l 1
 130 49 l 1
 0 49 l 1
EndSplineSet
Comment: "AUTOGENERATED DO NOT EDIT"
Colour: f22929
EndChar

StartChar: bblock.
Encoding: 173 -1 163
Width: 0
VWidth: 0
UnlinkRmOvrlpSave: 1
Flags: HW
LayerCount: 2
Fore
SplineSet
0 -79 m 1
 0 51 l 1
 130 51 l 1
 130 -79 l 1
 0 -79 l 1
EndSplineSet
Comment: "AUTOGENERATED DO NOT EDIT"
Colour: f22929
EndChar

StartChar: bblock.
Encoding: 174 -1 164
Width: 0
VWidth: 0
UnlinkRmOvrlpSave: 1
Flags: HW
LayerCount: 2
Fore
SplineSet
0 -207 m 1
 0 -77 l 1
 130 -77 l 1
 130 -207 l 1
 0 -207 l 1
EndSplineSet
Comment: "AUTOGENERATED DO NOT EDIT"
Colour: f22929
EndChar

StartChar: bblock.
Encoding: 175 -1 165
Width: 0
VWidth: 0
UnlinkRmOvrlpSave: 1
Flags: HW
LayerCount: 2
Fore
SplineSet
0 275 m 1
 0 339 l 1
 130 339 l 1
 130 275 l 1
 0 275 l 1
EndSplineSet
Comment: "AUTOGENERATED DO NOT EDIT"
Colour: f22929
EndChar

StartChar: bblock.
Encoding: 176 -1 166
Width: 0
VWidth: 0
UnlinkRmOvrlpSave: 1
Flags: HW
LayerCount: 2
Fore
SplineSet
0 689 m 1
 0 819 l 1
 130 819 l 1
 130 689 l 1
 0 689 l 1
EndSplineSet
Comment: "AUTOGENERATED DO NOT EDIT"
Colour: f22929
EndChar

StartChar: bblock.
Encoding: 177 -1 167
Width: 0
VWidth: 0
UnlinkRmOvrlpSave: 1
Flags: HW
LayerCount: 2
Fore
SplineSet
0 561 m 1
 0 691 l 1
 130 691 l 1
 130 561 l 1
 0 561 l 1
EndSplineSet
Comment: "AUTOGENERATED DO NOT EDIT"
Colour: f22929
EndChar

StartChar: bblock.
Encoding: 178 -1 168
Width: 0
VWidth: 0
UnlinkRmOvrlpSave: 1
Flags: HW
LayerCount: 2
Fore
SplineSet
0 433 m 1
 0 563 l 1
 130 563 l 1
 130 433 l 1
 0 433 l 1
EndSplineSet
Comment: "AUTOGENERATED DO NOT EDIT"
Colour: f22929
EndChar

StartChar: bblock.
Encoding: 179 -1 169
Width: 0
VWidth: 0
UnlinkRmOvrlpSave: 1
Flags: HW
LayerCount: 2
Fore
SplineSet
0 305 m 1
 0 435 l 1
 130 435 l 1
 130 305 l 1
 0 305 l 1
EndSplineSet
Comment: "AUTOGENERATED DO NOT EDIT"
Colour: f22929
EndChar

StartChar: bblock.
Encoding: 180 -1 170
Width: 0
VWidth: 0
UnlinkRmOvrlpSave: 1
Flags: HW
LayerCount: 2
Fore
SplineSet
0 177 m 1
 0 307 l 1
 130 307 l 1
 130 177 l 1
 0 177 l 1
EndSplineSet
Comment: "AUTOGENERATED DO NOT EDIT"
Colour: f22929
EndChar

StartChar: bblock.
Encoding: 181 -1 171
Width: 0
VWidth: 0
UnlinkRmOvrlpSave: 1
Flags: HW
LayerCount: 2
Fore
SplineSet
0 49 m 1
 0 179 l 1
 130 179 l 1
 130 49 l 1
 0 49 l 1
EndSplineSet
Comment: "AUTOGENERATED DO NOT EDIT"
Colour: f22929
EndChar

StartChar: bblock.
Encoding: 182 -1 172
Width: 0
VWidth: 0
UnlinkRmOvrlpSave: 1
Flags: HW
LayerCount: 2
Fore
SplineSet
0 -79 m 1
 0 51 l 1
 130 51 l 1
 130 -79 l 1
 0 -79 l 1
EndSplineSet
Comment: "AUTOGENERATED DO NOT EDIT"
Colour: f22929
EndChar

StartChar: bblock.
Encoding: 183 -1 173
Width: 0
VWidth: 0
UnlinkRmOvrlpSave: 1
Flags: HW
LayerCount: 2
Fore
SplineSet
0 -207 m 1
 0 -77 l 1
 130 -77 l 1
 130 -207 l 1
 0 -207 l 1
EndSplineSet
Comment: "AUTOGENERATED DO NOT EDIT"
Colour: f22929
EndChar

StartChar: bblock.
Encoding: 184 -1 174
Width: 0
VWidth: 0
UnlinkRmOvrlpSave: 1
Flags: HW
LayerCount: 2
Fore
SplineSet
0 275 m 1
 0 339 l 1
 130 339 l 1
 130 275 l 1
 0 275 l 1
EndSplineSet
Comment: "AUTOGENERATED DO NOT EDIT"
Colour: f22929
EndChar

StartChar: bblock.
Encoding: 185 -1 175
Width: 0
VWidth: 0
UnlinkRmOvrlpSave: 1
Flags: HW
LayerCount: 2
Fore
SplineSet
0 689 m 1
 0 819 l 1
 130 819 l 1
 130 689 l 1
 0 689 l 1
EndSplineSet
Comment: "AUTOGENERATED DO NOT EDIT"
Colour: f22929
EndChar

StartChar: bblock.
Encoding: 186 -1 176
Width: 0
VWidth: 0
UnlinkRmOvrlpSave: 1
Flags: HW
LayerCount: 2
Fore
SplineSet
0 561 m 1
 0 691 l 1
 130 691 l 1
 130 561 l 1
 0 561 l 1
EndSplineSet
Comment: "AUTOGENERATED DO NOT EDIT"
Colour: f22929
EndChar

StartChar: bblock.
Encoding: 187 -1 177
Width: 0
VWidth: 0
UnlinkRmOvrlpSave: 1
Flags: HW
LayerCount: 2
Fore
SplineSet
0 433 m 1
 0 563 l 1
 130 563 l 1
 130 433 l 1
 0 433 l 1
EndSplineSet
Comment: "AUTOGENERATED DO NOT EDIT"
Colour: f22929
EndChar

StartChar: bblock.
Encoding: 188 -1 178
Width: 0
VWidth: 0
UnlinkRmOvrlpSave: 1
Flags: HW
LayerCount: 2
Fore
SplineSet
0 305 m 1
 0 435 l 1
 130 435 l 1
 130 305 l 1
 0 305 l 1
EndSplineSet
Comment: "AUTOGENERATED DO NOT EDIT"
Colour: f22929
EndChar

StartChar: bblock.
Encoding: 189 -1 179
Width: 0
VWidth: 0
UnlinkRmOvrlpSave: 1
Flags: HW
LayerCount: 2
Fore
SplineSet
0 177 m 1
 0 307 l 1
 130 307 l 1
 130 177 l 1
 0 177 l 1
EndSplineSet
Comment: "AUTOGENERATED DO NOT EDIT"
Colour: f22929
EndChar

StartChar: bblock.
Encoding: 190 -1 180
Width: 0
VWidth: 0
UnlinkRmOvrlpSave: 1
Flags: HW
LayerCount: 2
Fore
SplineSet
0 49 m 1
 0 179 l 1
 130 179 l 1
 130 49 l 1
 0 49 l 1
EndSplineSet
Comment: "AUTOGENERATED DO NOT EDIT"
Colour: f22929
EndChar

StartChar: bblock.
Encoding: 191 -1 181
Width: 0
VWidth: 0
UnlinkRmOvrlpSave: 1
Flags: HW
LayerCount: 2
Fore
SplineSet
0 -79 m 1
 0 51 l 1
 130 51 l 1
 130 -79 l 1
 0 -79 l 1
EndSplineSet
Comment: "AUTOGENERATED DO NOT EDIT"
Colour: f22929
EndChar

StartChar: bblock.
Encoding: 192 -1 182
Width: 0
VWidth: 0
UnlinkRmOvrlpSave: 1
Flags: HW
LayerCount: 2
Fore
SplineSet
0 -207 m 1
 0 -77 l 1
 130 -77 l 1
 130 -207 l 1
 0 -207 l 1
EndSplineSet
Comment: "AUTOGENERATED DO NOT EDIT"
Colour: f22929
EndChar

StartChar: bblock.
Encoding: 193 -1 183
Width: 0
VWidth: 0
UnlinkRmOvrlpSave: 1
Flags: HW
LayerCount: 2
Fore
SplineSet
0 243 m 1
 0 371 l 1
 128 371 l 1
 128 243 l 1
 0 243 l 1
EndSplineSet
Comment: "AUTOGENERATED DO NOT EDIT"
Colour: f22929
EndChar

StartChar: bblock.
Encoding: 194 -1 184
Width: 0
VWidth: 0
UnlinkRmOvrlpSave: 1
Flags: HW
LayerCount: 2
Fore
SplineSet
0 691 m 1
 0 819 l 1
 128 819 l 1
 128 691 l 1
 0 691 l 1
EndSplineSet
Comment: "AUTOGENERATED DO NOT EDIT"
Colour: f22929
EndChar

StartChar: bblock.
Encoding: 195 -1 185
Width: 0
VWidth: 0
UnlinkRmOvrlpSave: 1
Flags: HW
LayerCount: 2
Fore
SplineSet
0 563 m 1
 0 691 l 1
 128 691 l 1
 128 563 l 1
 0 563 l 1
EndSplineSet
Comment: "AUTOGENERATED DO NOT EDIT"
Colour: f22929
EndChar

StartChar: bblock.
Encoding: 196 -1 186
Width: 0
VWidth: 0
UnlinkRmOvrlpSave: 1
Flags: HW
LayerCount: 2
Fore
SplineSet
0 435 m 1
 0 563 l 1
 128 563 l 1
 128 435 l 1
 0 435 l 1
EndSplineSet
Comment: "AUTOGENERATED DO NOT EDIT"
Colour: f22929
EndChar

StartChar: bblock.
Encoding: 197 -1 187
Width: 0
VWidth: 0
UnlinkRmOvrlpSave: 1
Flags: HW
LayerCount: 2
Fore
SplineSet
0 307 m 1
 0 435 l 1
 128 435 l 1
 128 307 l 1
 0 307 l 1
EndSplineSet
Comment: "AUTOGENERATED DO NOT EDIT"
Colour: f22929
EndChar

StartChar: bblock.
Encoding: 198 -1 188
Width: 0
VWidth: 0
UnlinkRmOvrlpSave: 1
Flags: HW
LayerCount: 2
Fore
SplineSet
0 179 m 1
 0 307 l 1
 128 307 l 1
 128 179 l 1
 0 179 l 1
EndSplineSet
Comment: "AUTOGENERATED DO NOT EDIT"
Colour: f22929
EndChar

StartChar: bblock.
Encoding: 199 -1 189
Width: 0
VWidth: 0
UnlinkRmOvrlpSave: 1
Flags: HW
LayerCount: 2
Fore
SplineSet
0 51 m 1
 0 179 l 1
 128 179 l 1
 128 51 l 1
 0 51 l 1
EndSplineSet
Comment: "AUTOGENERATED DO NOT EDIT"
Colour: f22929
EndChar

StartChar: bblock.
Encoding: 200 -1 190
Width: 0
VWidth: 0
UnlinkRmOvrlpSave: 1
Flags: HW
LayerCount: 2
Fore
SplineSet
0 -77 m 1
 0 51 l 1
 128 51 l 1
 128 -77 l 1
 0 -77 l 1
EndSplineSet
Comment: "AUTOGENERATED DO NOT EDIT"
Colour: f22929
EndChar

StartChar: bblock.
Encoding: 201 -1 191
Width: 0
VWidth: 0
UnlinkRmOvrlpSave: 1
Flags: HW
LayerCount: 2
Fore
SplineSet
0 -205 m 1
 0 -77 l 1
 128 -77 l 1
 128 -205 l 1
 0 -205 l 1
EndSplineSet
Comment: "AUTOGENERATED DO NOT EDIT"
Colour: f22929
EndChar

StartChar: bblock.
Encoding: 202 -1 192
Width: 0
VWidth: 0
UnlinkRmOvrlpSave: 1
Flags: HW
LayerCount: 2
Fore
SplineSet
0 243 m 1
 0 371 l 1
 130 371 l 1
 130 243 l 1
 0 243 l 1
EndSplineSet
Comment: "AUTOGENERATED DO NOT EDIT"
Colour: f22929
EndChar

StartChar: bblock.
Encoding: 203 -1 193
Width: 0
VWidth: 0
UnlinkRmOvrlpSave: 1
Flags: HW
LayerCount: 2
Fore
SplineSet
0 689 m 1
 0 819 l 1
 130 819 l 1
 130 689 l 1
 0 689 l 1
EndSplineSet
Comment: "AUTOGENERATED DO NOT EDIT"
Colour: f22929
EndChar

StartChar: bblock.
Encoding: 204 -1 194
Width: 0
VWidth: 0
UnlinkRmOvrlpSave: 1
Flags: HW
LayerCount: 2
Fore
SplineSet
0 561 m 1
 0 691 l 1
 130 691 l 1
 130 561 l 1
 0 561 l 1
EndSplineSet
Comment: "AUTOGENERATED DO NOT EDIT"
Colour: f22929
EndChar

StartChar: bblock.
Encoding: 205 -1 195
Width: 0
VWidth: 0
UnlinkRmOvrlpSave: 1
Flags: HW
LayerCount: 2
Fore
SplineSet
0 433 m 1
 0 563 l 1
 130 563 l 1
 130 433 l 1
 0 433 l 1
EndSplineSet
Comment: "AUTOGENERATED DO NOT EDIT"
Colour: f22929
EndChar

StartChar: bblock.
Encoding: 206 -1 196
Width: 0
VWidth: 0
UnlinkRmOvrlpSave: 1
Flags: HW
LayerCount: 2
Fore
SplineSet
0 305 m 1
 0 435 l 1
 130 435 l 1
 130 305 l 1
 0 305 l 1
EndSplineSet
Comment: "AUTOGENERATED DO NOT EDIT"
Colour: f22929
EndChar

StartChar: bblock.
Encoding: 207 -1 197
Width: 0
VWidth: 0
UnlinkRmOvrlpSave: 1
Flags: HW
LayerCount: 2
Fore
SplineSet
0 177 m 1
 0 307 l 1
 130 307 l 1
 130 177 l 1
 0 177 l 1
EndSplineSet
Comment: "AUTOGENERATED DO NOT EDIT"
Colour: f22929
EndChar

StartChar: bblock.
Encoding: 208 -1 198
Width: 0
VWidth: 0
UnlinkRmOvrlpSave: 1
Flags: HW
LayerCount: 2
Fore
SplineSet
0 49 m 1
 0 179 l 1
 130 179 l 1
 130 49 l 1
 0 49 l 1
EndSplineSet
Comment: "AUTOGENERATED DO NOT EDIT"
Colour: f22929
EndChar

StartChar: bblock.
Encoding: 209 -1 199
Width: 0
VWidth: 0
UnlinkRmOvrlpSave: 1
Flags: HW
LayerCount: 2
Fore
SplineSet
0 -79 m 1
 0 51 l 1
 130 51 l 1
 130 -79 l 1
 0 -79 l 1
EndSplineSet
Comment: "AUTOGENERATED DO NOT EDIT"
Colour: f22929
EndChar

StartChar: bblock.
Encoding: 210 -1 200
Width: 0
VWidth: 0
UnlinkRmOvrlpSave: 1
Flags: HW
LayerCount: 2
Fore
SplineSet
0 -207 m 1
 0 -77 l 1
 130 -77 l 1
 130 -207 l 1
 0 -207 l 1
EndSplineSet
Comment: "AUTOGENERATED DO NOT EDIT"
Colour: f22929
EndChar

StartChar: bblock.
Encoding: 212 -1 202
Width: 0
VWidth: 0
UnlinkRmOvrlpSave: 1
Flags: HW
LayerCount: 2
Fore
SplineSet
0 689 m 1
 0 819 l 1
 130 819 l 1
 130 689 l 1
 0 689 l 1
EndSplineSet
Comment: "AUTOGENERATED DO NOT EDIT"
Colour: f22929
EndChar

StartChar: bblock.
Encoding: 213 -1 203
Width: 0
VWidth: 0
UnlinkRmOvrlpSave: 1
Flags: HW
LayerCount: 2
Fore
SplineSet
0 561 m 1
 0 691 l 1
 130 691 l 1
 130 561 l 1
 0 561 l 1
EndSplineSet
Comment: "AUTOGENERATED DO NOT EDIT"
Colour: f22929
EndChar

StartChar: bblock.
Encoding: 214 -1 204
Width: 0
VWidth: 0
UnlinkRmOvrlpSave: 1
Flags: HW
LayerCount: 2
Fore
SplineSet
0 433 m 1
 0 563 l 1
 130 563 l 1
 130 433 l 1
 0 433 l 1
EndSplineSet
Comment: "AUTOGENERATED DO NOT EDIT"
Colour: f22929
EndChar

StartChar: bblock.
Encoding: 215 -1 205
Width: 0
VWidth: 0
UnlinkRmOvrlpSave: 1
Flags: HW
LayerCount: 2
Fore
SplineSet
0 305 m 1
 0 435 l 1
 130 435 l 1
 130 305 l 1
 0 305 l 1
EndSplineSet
Comment: "AUTOGENERATED DO NOT EDIT"
Colour: f22929
EndChar

StartChar: bblock.
Encoding: 216 -1 206
Width: 0
VWidth: 0
UnlinkRmOvrlpSave: 1
Flags: HW
LayerCount: 2
Fore
SplineSet
0 177 m 1
 0 307 l 1
 130 307 l 1
 130 177 l 1
 0 177 l 1
EndSplineSet
Comment: "AUTOGENERATED DO NOT EDIT"
Colour: f22929
EndChar

StartChar: bblock.
Encoding: 217 -1 207
Width: 0
VWidth: 0
UnlinkRmOvrlpSave: 1
Flags: HW
LayerCount: 2
Fore
SplineSet
0 49 m 1
 0 179 l 1
 130 179 l 1
 130 49 l 1
 0 49 l 1
EndSplineSet
Comment: "AUTOGENERATED DO NOT EDIT"
Colour: f22929
EndChar

StartChar: bblock.
Encoding: 218 -1 208
Width: 0
VWidth: 0
UnlinkRmOvrlpSave: 1
Flags: HW
LayerCount: 2
Fore
SplineSet
0 -79 m 1
 0 51 l 1
 130 51 l 1
 130 -79 l 1
 0 -79 l 1
EndSplineSet
Comment: "AUTOGENERATED DO NOT EDIT"
Colour: f22929
EndChar

StartChar: bblock.
Encoding: 219 -1 209
Width: 0
VWidth: 0
UnlinkRmOvrlpSave: 1
Flags: HW
LayerCount: 2
Fore
SplineSet
0 -207 m 1
 0 -77 l 1
 130 -77 l 1
 130 -207 l 1
 0 -207 l 1
EndSplineSet
Comment: "AUTOGENERATED DO NOT EDIT"
Colour: f22929
EndChar

StartChar: bblock.
Encoding: 220 -1 210
Width: 0
VWidth: 0
UnlinkRmOvrlpSave: 1
Flags: HW
LayerCount: 2
Fore
SplineSet
0 243 m 1
 0 371 l 1
 130 371 l 1
 130 243 l 1
 0 243 l 1
EndSplineSet
Comment: "AUTOGENERATED DO NOT EDIT"
Colour: f22929
EndChar

StartChar: bblock.
Encoding: 221 -1 211
Width: 0
VWidth: 0
UnlinkRmOvrlpSave: 1
Flags: HW
LayerCount: 2
Fore
SplineSet
0 689 m 1
 0 819 l 1
 130 819 l 1
 130 689 l 1
 0 689 l 1
EndSplineSet
Comment: "AUTOGENERATED DO NOT EDIT"
Colour: f22929
EndChar

StartChar: bblock.
Encoding: 222 -1 212
Width: 0
VWidth: 0
UnlinkRmOvrlpSave: 1
Flags: HW
LayerCount: 2
Fore
SplineSet
0 561 m 1
 0 691 l 1
 130 691 l 1
 130 561 l 1
 0 561 l 1
EndSplineSet
Comment: "AUTOGENERATED DO NOT EDIT"
Colour: f22929
EndChar

StartChar: bblock.
Encoding: 223 -1 213
Width: 0
VWidth: 0
UnlinkRmOvrlpSave: 1
Flags: HW
LayerCount: 2
Fore
SplineSet
0 433 m 1
 0 563 l 1
 130 563 l 1
 130 433 l 1
 0 433 l 1
EndSplineSet
Comment: "AUTOGENERATED DO NOT EDIT"
Colour: f22929
EndChar

StartChar: bblock.
Encoding: 224 -1 214
Width: 0
VWidth: 0
UnlinkRmOvrlpSave: 1
Flags: HW
LayerCount: 2
Fore
SplineSet
0 305 m 1
 0 435 l 1
 130 435 l 1
 130 305 l 1
 0 305 l 1
EndSplineSet
Comment: "AUTOGENERATED DO NOT EDIT"
Colour: f22929
EndChar

StartChar: bblock.
Encoding: 225 -1 215
Width: 0
VWidth: 0
UnlinkRmOvrlpSave: 1
Flags: HW
LayerCount: 2
Fore
SplineSet
0 177 m 1
 0 307 l 1
 130 307 l 1
 130 177 l 1
 0 177 l 1
EndSplineSet
Comment: "AUTOGENERATED DO NOT EDIT"
Colour: f22929
EndChar

StartChar: bblock.
Encoding: 226 -1 216
Width: 0
VWidth: 0
UnlinkRmOvrlpSave: 1
Flags: HW
LayerCount: 2
Fore
SplineSet
0 49 m 1
 0 179 l 1
 130 179 l 1
 130 49 l 1
 0 49 l 1
EndSplineSet
Comment: "AUTOGENERATED DO NOT EDIT"
Colour: f22929
EndChar

StartChar: bblock.
Encoding: 227 -1 217
Width: 0
VWidth: 0
UnlinkRmOvrlpSave: 1
Flags: HW
LayerCount: 2
Fore
SplineSet
0 -79 m 1
 0 51 l 1
 130 51 l 1
 130 -79 l 1
 0 -79 l 1
EndSplineSet
Comment: "AUTOGENERATED DO NOT EDIT"
Colour: f22929
EndChar

StartChar: bblock.
Encoding: 228 -1 218
Width: 0
VWidth: 0
UnlinkRmOvrlpSave: 1
Flags: HW
LayerCount: 2
Fore
SplineSet
0 -207 m 1
 0 -77 l 1
 130 -77 l 1
 130 -207 l 1
 0 -207 l 1
EndSplineSet
Comment: "AUTOGENERATED DO NOT EDIT"
Colour: f22929
EndChar

StartChar: bblock.
Encoding: 229 -1 219
Width: 0
VWidth: 0
UnlinkRmOvrlpSave: 1
Flags: HW
LayerCount: 2
Fore
SplineSet
0 243 m 1
 0 371 l 1
 130 371 l 1
 130 243 l 1
 0 243 l 1
EndSplineSet
Comment: "AUTOGENERATED DO NOT EDIT"
Colour: f22929
EndChar

StartChar: bblock.
Encoding: 230 -1 220
Width: 0
VWidth: 0
UnlinkRmOvrlpSave: 1
Flags: HW
LayerCount: 2
Fore
SplineSet
0 689 m 1
 0 819 l 1
 130 819 l 1
 130 689 l 1
 0 689 l 1
EndSplineSet
Comment: "AUTOGENERATED DO NOT EDIT"
Colour: f22929
EndChar

StartChar: bblock.
Encoding: 231 -1 221
Width: 0
VWidth: 0
UnlinkRmOvrlpSave: 1
Flags: HW
LayerCount: 2
Fore
SplineSet
0 561 m 1
 0 691 l 1
 130 691 l 1
 130 561 l 1
 0 561 l 1
EndSplineSet
Comment: "AUTOGENERATED DO NOT EDIT"
Colour: f22929
EndChar

StartChar: bblock.
Encoding: 232 -1 222
Width: 0
VWidth: 0
UnlinkRmOvrlpSave: 1
Flags: HW
LayerCount: 2
Fore
SplineSet
0 433 m 1
 0 563 l 1
 130 563 l 1
 130 433 l 1
 0 433 l 1
EndSplineSet
Comment: "AUTOGENERATED DO NOT EDIT"
Colour: f22929
EndChar

StartChar: bblock.
Encoding: 233 -1 223
Width: 0
VWidth: 0
UnlinkRmOvrlpSave: 1
Flags: HW
LayerCount: 2
Fore
SplineSet
0 305 m 1
 0 435 l 1
 130 435 l 1
 130 305 l 1
 0 305 l 1
EndSplineSet
Comment: "AUTOGENERATED DO NOT EDIT"
Colour: f22929
EndChar

StartChar: bblock.
Encoding: 234 -1 224
Width: 0
VWidth: 0
UnlinkRmOvrlpSave: 1
Flags: HW
LayerCount: 2
Fore
SplineSet
0 177 m 1
 0 307 l 1
 130 307 l 1
 130 177 l 1
 0 177 l 1
EndSplineSet
Comment: "AUTOGENERATED DO NOT EDIT"
Colour: f22929
EndChar

StartChar: bblock.
Encoding: 235 -1 225
Width: 0
VWidth: 0
UnlinkRmOvrlpSave: 1
Flags: HW
LayerCount: 2
Fore
SplineSet
0 49 m 1
 0 179 l 1
 130 179 l 1
 130 49 l 1
 0 49 l 1
EndSplineSet
Comment: "AUTOGENERATED DO NOT EDIT"
Colour: f22929
EndChar

StartChar: bblock.
Encoding: 236 -1 226
Width: 0
VWidth: 0
UnlinkRmOvrlpSave: 1
Flags: HW
LayerCount: 2
Fore
SplineSet
0 -79 m 1
 0 51 l 1
 130 51 l 1
 130 -79 l 1
 0 -79 l 1
EndSplineSet
Comment: "AUTOGENERATED DO NOT EDIT"
Colour: f22929
EndChar

StartChar: bblock.
Encoding: 237 -1 227
Width: 0
VWidth: 0
UnlinkRmOvrlpSave: 1
Flags: HW
LayerCount: 2
Fore
SplineSet
0 -207 m 1
 0 -77 l 1
 130 -77 l 1
 130 -207 l 1
 0 -207 l 1
EndSplineSet
Comment: "AUTOGENERATED DO NOT EDIT"
Colour: f22929
EndChar

StartChar: bblock.{index}0
Encoding: 238 -1 228
Width: 0
VWidth: 0
UnlinkRmOvrlpSave: 1
Flags: HW
LayerCount: 2
Fore
SplineSet
0 275 m 1
 0 339 l 1
 130 339 l 1
 130 275 l 1
 0 275 l 1
EndSplineSet
Comment: "AUTOGENERATED DO NOT EDIT"
Colour: f22929
EndChar

StartChar: bblock.{index}1
Encoding: 239 -1 229
Width: 0
VWidth: 0
UnlinkRmOvrlpSave: 1
Flags: HW
LayerCount: 2
Fore
SplineSet
0 689 m 1
 0 819 l 1
 130 819 l 1
 130 689 l 1
 0 689 l 1
EndSplineSet
Comment: "AUTOGENERATED DO NOT EDIT"
Colour: f22929
EndChar

StartChar: bblock.{index}2
Encoding: 240 -1 230
Width: 0
VWidth: 0
UnlinkRmOvrlpSave: 1
Flags: HW
LayerCount: 2
Fore
SplineSet
0 561 m 1
 0 691 l 1
 130 691 l 1
 130 561 l 1
 0 561 l 1
EndSplineSet
Comment: "AUTOGENERATED DO NOT EDIT"
Colour: f22929
EndChar

StartChar: bblock.{index}3
Encoding: 241 -1 231
Width: 0
VWidth: 0
UnlinkRmOvrlpSave: 1
Flags: HW
LayerCount: 2
Fore
SplineSet
0 433 m 1
 0 563 l 1
 130 563 l 1
 130 433 l 1
 0 433 l 1
EndSplineSet
Comment: "AUTOGENERATED DO NOT EDIT"
Colour: f22929
EndChar

StartChar: bblock.{index}4
Encoding: 242 -1 232
Width: 0
VWidth: 0
UnlinkRmOvrlpSave: 1
Flags: HW
LayerCount: 2
Fore
SplineSet
0 305 m 1
 0 435 l 1
 130 435 l 1
 130 305 l 1
 0 305 l 1
EndSplineSet
Comment: "AUTOGENERATED DO NOT EDIT"
Colour: f22929
EndChar

StartChar: bblock.{index}5
Encoding: 243 -1 233
Width: 0
VWidth: 0
UnlinkRmOvrlpSave: 1
Flags: HW
LayerCount: 2
Fore
SplineSet
0 177 m 1
 0 307 l 1
 130 307 l 1
 130 177 l 1
 0 177 l 1
EndSplineSet
Comment: "AUTOGENERATED DO NOT EDIT"
Colour: f22929
EndChar

StartChar: bblock.{index}6
Encoding: 244 -1 234
Width: 0
VWidth: 0
UnlinkRmOvrlpSave: 1
Flags: HW
LayerCount: 2
Fore
SplineSet
0 49 m 1
 0 179 l 1
 130 179 l 1
 130 49 l 1
 0 49 l 1
EndSplineSet
Comment: "AUTOGENERATED DO NOT EDIT"
Colour: f22929
EndChar

StartChar: bblock.{index}7
Encoding: 245 -1 235
Width: 0
VWidth: 0
UnlinkRmOvrlpSave: 1
Flags: HW
LayerCount: 2
Fore
SplineSet
0 -79 m 1
 0 51 l 1
 130 51 l 1
 130 -79 l 1
 0 -79 l 1
EndSplineSet
Comment: "AUTOGENERATED DO NOT EDIT"
Colour: f22929
EndChar

StartChar: bblock.{index}8
Encoding: 246 -1 236
Width: 0
VWidth: 0
UnlinkRmOvrlpSave: 1
Flags: HW
LayerCount: 2
Fore
SplineSet
0 -207 m 1
 0 -77 l 1
 130 -77 l 1
 130 -207 l 1
 0 -207 l 1
EndSplineSet
Comment: "AUTOGENERATED DO NOT EDIT"
Colour: f22929
EndChar
